<svg width="77" height="62" viewBox="0 0 77 62" fill="none" xmlns="http://www.w3.org/2000/svg">
<path d="M76.25 0.540957C76.25 0.540957 53.75 8.04053 48.75 16.5405C43.75 25.0405 43.75 26.0405 38.25 31.0405C32.75 36.0405 19.25 39.041 19.25 39.041C19.25 39.041 20.25 36.0405 18.25 34.041C16.25 32.0415 13.75 31.541 13.75 31.541C13.75 31.541 27.25 28.5402 32.75 23.5402C38.25 18.5402 41.75 13.5408 45.25 10.5405C48.75 7.54025 54.25 5.04025 60.25 2.54025C66.25 0.0402486 76.25 0.540957 76.25 0.540957Z" fill="url(#paint0_linear_172_7524)"/>
<path d="M66.75 11.0409C62.25 10.5407 58.75 11.0401 55.25 13.0406C51.75 15.041 48.8612 19.2125 46.75 23.5404C46.75 23.5404 47.7443 23.2436 57.7472 17.6423C67.75 12.041 76.25 15.5402 76.25 15.5402C76.25 15.5402 74.25 13.9594 73.75 13.5C73.25 13.0406 71.25 11.541 66.75 11.0409Z" fill="#FE4E15"/>
<path d="M71.25 24.5409C70.25 24.0406 62.75 20.5412 58.25 21.0409C53.75 21.5406 47.25 24.8743 44.75 26.5409C42.25 28.2075 44.9044 27.0409 40.25 31.5409C37.3723 34.3232 34.25 36.0406 34.25 36.0406C34.25 36.0406 35.75 36.0409 40.75 34.5409C45.7495 33.041 45.75 33.0406 54.2475 27.0427L54.25 27.0409C62.75 21.0411 72.25 25.5409 72.25 25.5409C72.25 25.5409 72.25 25.0411 71.25 24.5409Z" fill="url(#paint1_linear_172_7524)"/>
<path d="M21.25 40.541C21.25 40.541 30.25 37.541 30.75 37.541C31.25 37.541 35.75 37.4412 37.75 37.0412C39.75 36.6412 43.25 35.5412 43.25 35.5412C43.25 35.5412 51.25 31.5413 53.25 31.0412C55.25 30.5412 59.75 29.5412 61.75 30.5412C63.5736 31.453 66.2286 33.1962 66.6827 33.4966C66.7276 33.5252 66.75 33.5412 66.75 33.5412C66.75 33.5412 66.7267 33.5257 66.6827 33.4966C66.227 33.2068 63.452 31.6309 58.25 32.5412C52.5357 33.5412 48.25 38.0412 48.25 38.0412C48.25 38.0412 42.25 43.5412 34.75 43.5412C27.25 43.5412 21.25 40.541 21.25 40.541Z" fill="#FE4E15"/>
<path d="M13.833 41.8H17.991L15.051 56.5H10.893L13.833 41.8ZM5.244 56.5H1.086L4.026 41.8H8.184L5.244 56.5ZM12.342 50.767H6.105L6.798 47.323H13.035L12.342 50.767ZM24.2419 56.689C23.0239 56.689 21.9599 56.479 21.0499 56.059C20.1539 55.625 19.4539 55.023 18.9499 54.253C18.4459 53.469 18.1939 52.552 18.1939 51.502C18.1939 50.242 18.4809 49.122 19.0549 48.142C19.6289 47.148 20.4339 46.364 21.4699 45.79C22.5059 45.216 23.7099 44.929 25.0819 44.929C26.2439 44.929 27.2379 45.139 28.0639 45.559C28.9039 45.979 29.5479 46.567 29.9959 47.323C30.4579 48.065 30.6889 48.933 30.6889 49.927C30.6889 50.263 30.6679 50.585 30.6259 50.893C30.5839 51.201 30.5279 51.502 30.4579 51.796H21.3229L21.7009 49.696H28.6099L26.9509 50.305C27.0629 49.759 27.0419 49.304 26.8879 48.94C26.7479 48.562 26.5029 48.275 26.1529 48.079C25.8169 47.869 25.3969 47.764 24.8929 47.764C24.2489 47.764 23.7169 47.925 23.2969 48.247C22.8909 48.569 22.5829 49.01 22.3729 49.57C22.1769 50.116 22.0789 50.711 22.0789 51.355C22.0789 52.139 22.2959 52.72 22.7299 53.098C23.1639 53.462 23.8149 53.644 24.6829 53.644C25.1869 53.644 25.6769 53.567 26.1529 53.413C26.6429 53.245 27.0699 53.014 27.4339 52.72L29.0929 55.219C28.3789 55.751 27.6019 56.129 26.7619 56.353C25.9359 56.577 25.0959 56.689 24.2419 56.689ZM36.3945 56.689C35.5825 56.689 34.8055 56.486 34.0635 56.08C33.3215 55.674 32.7195 55.086 32.2575 54.316C31.8095 53.546 31.5855 52.608 31.5855 51.502C31.5855 50.55 31.7465 49.675 32.0685 48.877C32.3905 48.079 32.8315 47.386 33.3915 46.798C33.9655 46.21 34.6235 45.755 35.3655 45.433C36.1215 45.097 36.9195 44.929 37.7595 44.929C38.6835 44.929 39.4745 45.111 40.1325 45.475C40.8045 45.825 41.2945 46.399 41.6025 47.197C41.9105 47.981 41.9805 49.045 41.8125 50.389C41.6865 51.663 41.3855 52.776 40.9095 53.728C40.4335 54.68 39.8175 55.415 39.0615 55.933C38.3055 56.437 37.4165 56.689 36.3945 56.689ZM37.7805 53.476C38.3125 53.476 38.7815 53.343 39.1875 53.077C39.5935 52.811 39.9085 52.44 40.1325 51.964C40.3705 51.488 40.4895 50.935 40.4895 50.305C40.4895 49.647 40.3005 49.122 39.9225 48.73C39.5445 48.324 39.0125 48.121 38.3265 48.121C37.8085 48.121 37.3395 48.261 36.9195 48.541C36.5135 48.807 36.1915 49.178 35.9535 49.654C35.7295 50.13 35.6175 50.683 35.6175 51.313C35.6175 51.971 35.8065 52.496 36.1845 52.888C36.5625 53.28 37.0945 53.476 37.7805 53.476ZM39.4605 56.5L39.8595 54.589L40.6155 50.83L41.1195 47.071L41.5185 45.118H45.5085L43.2405 56.5H39.4605ZM45.8091 56.5L48.9171 40.918H52.9071L49.7991 56.5H45.8091ZM58.8181 56.689C57.6001 56.689 56.5361 56.479 55.6261 56.059C54.7301 55.625 54.0301 55.023 53.5261 54.253C53.0221 53.469 52.7701 52.552 52.7701 51.502C52.7701 50.242 53.0571 49.122 53.6311 48.142C54.2051 47.148 55.0101 46.364 56.0461 45.79C57.0821 45.216 58.2861 44.929 59.6581 44.929C60.8201 44.929 61.8141 45.139 62.6401 45.559C63.4801 45.979 64.1241 46.567 64.5721 47.323C65.0341 48.065 65.2651 48.933 65.2651 49.927C65.2651 50.263 65.2441 50.585 65.2021 50.893C65.1601 51.201 65.1041 51.502 65.0341 51.796H55.8991L56.2771 49.696H63.1861L61.5271 50.305C61.6391 49.759 61.6181 49.304 61.4641 48.94C61.3241 48.562 61.0791 48.275 60.7291 48.079C60.3931 47.869 59.9731 47.764 59.4691 47.764C58.8251 47.764 58.2931 47.925 57.8731 48.247C57.4671 48.569 57.1591 49.01 56.9491 49.57C56.7531 50.116 56.6551 50.711 56.6551 51.355C56.6551 52.139 56.8721 52.72 57.3061 53.098C57.7401 53.462 58.3911 53.644 59.2591 53.644C59.7631 53.644 60.2531 53.567 60.7291 53.413C61.2191 53.245 61.6461 53.014 62.0101 52.72L63.6691 55.219C62.9551 55.751 62.1781 56.129 61.3381 56.353C60.5121 56.577 59.6721 56.689 58.8181 56.689ZM65.7837 56.5L68.0517 45.118H71.8317L71.1807 48.352L70.8027 47.428C71.3067 46.518 71.9717 45.874 72.7977 45.496C73.6237 45.118 74.5897 44.929 75.6957 44.929L75.0027 48.52C74.8347 48.492 74.6807 48.478 74.5407 48.478C74.4007 48.464 74.2537 48.457 74.0997 48.457C73.2317 48.457 72.5177 48.667 71.9577 49.087C71.4117 49.493 71.0477 50.172 70.8657 51.124L69.7737 56.5H65.7837Z" fill="#FE4E15"/>
<defs>
<linearGradient id="paint0_linear_172_7524" x1="45" y1="0.5" x2="45" y2="43.5412" gradientUnits="userSpaceOnUse">
<stop stop-color="#18A884"/>
<stop offset="1" stop-color="#274344"/>
</linearGradient>
<linearGradient id="paint1_linear_172_7524" x1="45" y1="0.5" x2="45" y2="43.5412" gradientUnits="userSpaceOnUse">
<stop stop-color="#18A884"/>
<stop offset="1" stop-color="#274344"/>
</linearGradient>
</defs>
</svg>
