<svg width="42" height="29" viewBox="0 0 42 29" fill="none" xmlns="http://www.w3.org/2000/svg">
<path d="M42 0.0275956C42 0.0275956 26.88 5.0806 23.52 10.8077C20.16 16.5347 20.16 17.2085 16.464 20.5774C12.768 23.9462 3.696 25.9679 3.696 25.9679C3.696 25.9679 4.368 23.9462 3.024 22.599C1.68 21.2518 0 20.9146 0 20.9146C0 20.9146 9.072 18.8927 12.768 15.5239C16.464 12.155 18.816 8.78653 21.168 6.76503C23.52 4.74352 27.216 3.05909 31.248 1.37466C35.28 -0.309768 42 0.0275956 42 0.0275956Z" fill="url(#paint0_linear_880_19278)"/>
<path d="M35.616 7.10214C32.592 6.76514 30.24 7.10162 27.888 8.44948C25.536 9.79733 23.5947 12.608 22.176 15.524C22.176 15.524 22.8442 15.324 29.5661 11.55C36.288 7.77602 42 10.1337 42 10.1337C42 10.1337 40.656 9.0686 40.32 8.75904C39.984 8.44948 38.64 7.43914 35.616 7.10214Z" fill="#FE4E15"/>
<path d="M38.64 16.1981C37.968 15.861 32.928 13.5032 29.904 13.8399C26.88 14.1766 22.512 16.4227 20.832 17.5456C19.152 18.6686 20.9358 17.8825 17.808 20.9145C15.8742 22.7891 13.776 23.9463 13.776 23.9463C13.776 23.9463 14.784 23.9465 18.144 22.9358C21.5037 21.9252 21.504 21.925 27.2143 17.8837L27.216 17.8825C32.928 13.84 39.312 16.8719 39.312 16.8719C39.312 16.8719 39.312 16.5351 38.64 16.1981Z" fill="url(#paint1_linear_880_19278)"/>
<path d="M5.04 26.9785C5.04 26.9785 11.088 24.9572 11.424 24.9572C11.76 24.9572 14.784 24.89 16.128 24.6205C17.472 24.351 19.824 23.6098 19.824 23.6098C19.824 23.6098 25.2 20.9148 26.544 20.5778C27.888 20.2409 30.912 19.5671 32.256 20.2409C33.4815 20.8552 35.2656 22.0298 35.5708 22.2322C35.601 22.2514 35.616 22.2623 35.616 22.2623C35.616 22.2623 35.6003 22.2518 35.5708 22.2322C35.2645 22.0369 33.3997 20.9751 29.904 21.5885C26.064 22.2623 23.184 25.2943 23.184 25.2943C23.184 25.2943 19.152 29 14.112 29C9.072 29 5.04 26.9785 5.04 26.9785Z" fill="#FE4E15"/>
<defs>
<linearGradient id="paint0_linear_880_19278" x1="21" y1="0" x2="21" y2="29" gradientUnits="userSpaceOnUse">
<stop stop-color="#18A884"/>
<stop offset="1" stop-color="#274344"/>
</linearGradient>
<linearGradient id="paint1_linear_880_19278" x1="21" y1="0" x2="21" y2="29" gradientUnits="userSpaceOnUse">
<stop stop-color="#18A884"/>
<stop offset="1" stop-color="#274344"/>
</linearGradient>
</defs>
</svg>
